<svg width="48" height="42" viewBox="0 0 48 42" fill="none" xmlns="http://www.w3.org/2000/svg">
<path d="M13.2886 25.2236C11.4113 24.5836 9.70461 23.9436 8.16861 23.3036C6.63261 22.6209 5.30994 21.8102 4.20061 20.8716C3.09127 19.9329 2.21661 18.8236 1.57661 17.5436C0.979272 16.2209 0.680606 14.6209 0.680606 12.7436C0.680606 9.11688 2.06727 6.21555 4.84061 4.03955C7.65661 1.86355 11.5819 0.775551 16.6166 0.775551C18.4513 0.775551 20.1579 0.90355 21.7366 1.15955C23.3153 1.41555 24.6593 1.82088 25.7686 2.37555C26.9206 2.88755 27.8166 3.57022 28.4566 4.42355C29.0966 5.23422 29.4166 6.19422 29.4166 7.30355C29.4166 8.41288 29.1606 9.37288 28.6486 10.1836C28.1366 10.9516 27.5179 11.6129 26.7926 12.1676C25.8539 11.5702 24.5953 11.0582 23.0166 10.6316C21.4379 10.1622 19.7099 9.92755 17.8326 9.92755C15.9126 9.92755 14.5046 10.2049 13.6086 10.7596C12.7126 11.2716 12.2646 11.9329 12.2646 12.7436C12.2646 13.3836 12.5419 13.9169 13.0966 14.3436C13.6513 14.7276 14.4833 15.0902 15.5926 15.4316L18.9846 16.5196C22.9953 17.7996 26.0673 19.4422 28.2006 21.4476C30.3766 23.4102 31.4646 26.0982 31.4646 29.5116C31.4646 33.1382 30.0353 36.0822 27.1766 38.3436C24.3179 40.5622 20.1153 41.6716 14.5686 41.6716C12.6059 41.6716 10.7713 41.5009 9.06461 41.1596C7.40061 40.8609 5.92861 40.4129 4.64861 39.8156C3.41127 39.1756 2.42994 38.4076 1.70461 37.5116C1.02194 36.5729 0.680606 35.5062 0.680606 34.3116C0.680606 33.0742 1.04327 32.0289 1.76861 31.1756C2.49394 30.2796 3.28327 29.5969 4.13661 29.1276C5.33127 30.0662 6.78194 30.8769 8.48861 31.5596C10.2379 32.2422 12.1366 32.5836 14.1846 32.5836C16.2753 32.5836 17.7473 32.2636 18.6006 31.6236C19.4539 30.9836 19.8806 30.2369 19.8806 29.3836C19.8806 28.5302 19.5393 27.8902 18.8566 27.4636C18.1739 26.9942 17.2139 26.5462 15.9766 26.1196L13.2886 25.2236ZM34.7786 35.4636C34.7786 33.6716 35.3333 32.1782 36.4426 30.9836C37.5519 29.7889 39.0666 29.1916 40.9866 29.1916C42.9066 29.1916 44.4213 29.7889 45.5306 30.9836C46.6399 32.1782 47.1946 33.6716 47.1946 35.4636C47.1946 37.2556 46.6399 38.7489 45.5306 39.9436C44.4213 41.1382 42.9066 41.7356 40.9866 41.7356C39.0666 41.7356 37.5519 41.1382 36.4426 39.9436C35.3333 38.7489 34.7786 37.2556 34.7786 35.4636Z" fill="#F1D5BB"/>
</svg>
